<?xml version="1.0" standalone="no"?>
<!DOCTYPE svg PUBLIC "-//W3C//DTD SVG 20010904//EN"
 "http://www.w3.org/TR/2001/REC-SVG-20010904/DTD/svg10.dtd">
<svg version="1.0" xmlns="http://www.w3.org/2000/svg"
 width="975.000000pt" height="975.000000pt" viewBox="0 0 975.000000 975.000000"
 preserveAspectRatio="xMidYMid meet">
<metadata>
Created by potrace 1.14, written by Peter Selinger 2001-2017
</metadata>
<g transform="translate(0.000000,975.000000) scale(0.100000,-0.100000)"
fill="#000000" stroke="none">
<path d="M8980 9735 c0 -8 5 -15 10 -15 6 0 10 7 10 15 0 8 -4 15 -10 15 -5 0
-10 -7 -10 -15z"/>
<path d="M8788 9693 c-19 -44 -33 -62 -48 -63 -4 0 -12 16 -19 35 -10 28 -17
35 -40 35 -37 0 -58 -17 -89 -75 -25 -45 -30 -50 -62 -50 -24 0 -47 -10 -72
-30 -33 -26 -37 -34 -32 -61 14 -74 -31 -151 -138 -236 -113 -90 -147 -128
-114 -128 33 0 19 -32 -46 -106 -353 -397 -767 -943 -1260 -1659 -261 -380
-295 -426 -302 -410 -3 8 -2 22 1 32 12 31 -15 3 -43 -45 -66 -114 -393 -641
-559 -902 -538 -843 -879 -1406 -1241 -2046 -14 -26 -33 -44 -49 -48 -28 -7
-59 -59 -52 -87 4 -15 0 -19 -21 -19 -24 -1 -33 -13 -79 -108 -44 -89 -139
-232 -147 -220 -1 1 3 82 10 178 7 96 17 366 23 600 17 627 18 648 44 656 21
7 21 8 -3 14 -23 5 -25 11 -24 55 0 28 9 84 18 125 10 45 21 154 26 275 5 110
14 219 19 241 6 23 12 120 15 215 3 171 12 231 59 414 29 110 37 178 49 405
14 256 12 662 -3 825 -19 195 -59 327 -125 405 -16 19 -40 57 -54 83 -32 63
-106 139 -160 167 -23 12 -70 27 -105 35 -47 9 -76 23 -116 55 -107 85 -225
130 -340 130 -75 0 -105 -15 -96 -49 3 -11 1 -21 -4 -21 -19 0 -101 -85 -121
-125 -11 -22 -70 -89 -133 -150 -129 -126 -145 -151 -265 -425 -103 -233 -140
-306 -202 -399 -26 -41 -51 -86 -55 -100 -9 -40 -58 -144 -87 -187 -14 -21
-26 -53 -26 -70 0 -18 -17 -62 -41 -105 -63 -112 -61 -108 -159 -354 -51 -126
-132 -324 -180 -440 -208 -496 -350 -865 -490 -1280 -43 -126 -96 -269 -119
-317 -22 -48 -81 -205 -132 -350 -50 -144 -100 -280 -111 -302 -11 -22 -30
-90 -43 -151 -12 -61 -28 -121 -34 -133 -6 -11 -11 -33 -11 -47 0 -15 -7 -39
-14 -53 -8 -15 -22 -65 -31 -112 -9 -47 -32 -121 -52 -165 -65 -147 -101 -250
-113 -320 -7 -39 -30 -112 -51 -164 -22 -52 -54 -142 -70 -200 -50 -173 -97
-319 -140 -434 -25 -65 -39 -117 -35 -130 3 -12 -3 -40 -14 -62 -10 -22 -26
-76 -35 -120 -9 -44 -56 -197 -105 -340 -134 -391 -211 -680 -241 -910 -12
-88 -13 -91 -60 -139 -45 -46 -47 -50 -37 -80 30 -88 110 -137 238 -144 l76
-4 44 60 c66 88 316 342 338 342 31 0 138 232 177 385 19 75 37 102 73 116 12
5 22 15 22 23 0 26 31 110 51 138 11 14 19 40 19 56 0 17 5 34 10 37 6 3 10
17 10 29 0 13 18 61 39 107 22 46 65 158 96 248 31 91 76 214 101 274 28 72
42 118 38 134 -4 14 0 33 10 48 19 29 50 35 42 8 -3 -10 -12 -62 -20 -116 -10
-66 -23 -112 -39 -140 -25 -41 -36 -79 -27 -85 3 -2 18 2 34 8 23 8 32 8 42
-2 10 -11 5 -45 -31 -183 -74 -286 -135 -450 -260 -692 -51 -99 -79 -163 -71
-163 27 0 68 44 131 141 64 97 66 100 70 176 4 65 7 78 24 84 27 10 27 11 97
213 34 100 97 278 139 396 87 241 146 422 141 427 -9 10 -81 -106 -141 -229
-63 -128 -70 -138 -96 -138 -19 0 -30 6 -34 20 -8 26 8 46 43 55 23 6 25 8 9
16 -9 6 -17 17 -17 25 0 22 38 92 81 150 22 28 39 56 39 62 0 57 152 494 166
479 2 -2 -5 -40 -16 -86 -11 -45 -20 -84 -20 -87 0 -2 16 -4 35 -4 l35 0 0 48
c0 40 5 53 28 75 30 28 86 141 122 244 12 34 37 80 56 101 27 32 33 46 28 69
-9 45 13 111 61 184 29 45 42 74 38 87 -3 13 4 33 16 51 31 43 61 112 61 140
0 24 156 410 392 971 187 444 372 895 463 1127 81 206 83 213 71 253 -11 36
-9 49 17 128 15 48 34 94 42 102 13 12 15 9 15 -30 0 -75 29 -533 46 -735 8
-104 19 -356 24 -560 5 -203 14 -422 19 -485 6 -63 15 -218 21 -345 33 -749
54 -981 99 -1120 29 -88 61 -267 61 -338 0 -27 14 -57 51 -114 44 -67 50 -83
47 -120 -3 -37 3 -50 41 -102 52 -73 123 -129 215 -172 101 -47 139 -48 204
-6 30 20 64 38 77 41 13 3 30 18 37 33 10 22 24 30 63 38 36 7 50 14 48 25 -3
12 9 15 64 15 56 0 79 6 126 30 32 16 64 39 71 50 40 61 211 405 237 476 51
140 430 858 725 1370 122 212 301 538 407 740 45 85 74 129 90 136 16 8 45 50
85 127 85 159 175 309 274 453 90 132 268 366 274 360 4 -4 -69 -273 -151
-557 -75 -258 -116 -430 -109 -452 3 -10 1 -18 -5 -18 -6 0 -11 -14 -11 -31 0
-39 -35 -161 -62 -212 -22 -45 -19 -54 12 -35 51 31 90 144 90 259 0 50 4 68
15 73 8 3 15 16 15 30 0 31 9 56 21 56 5 0 9 -36 9 -81 0 -83 -26 -183 -71
-271 -18 -36 -19 -42 -6 -55 21 -21 21 -19 110 247 84 251 169 541 222 763 39
163 38 160 28 154 -5 -3 -16 6 -26 19 -16 21 -16 24 -2 24 33 0 73 55 95 131
53 179 68 211 93 191 11 -9 17 -6 27 16 23 50 60 166 86 267 32 130 68 223 99
260 l25 30 -20 -54 c-21 -58 -20 -67 5 -57 28 10 59 95 60 163 0 33 6 67 12
75 6 7 25 41 42 76 17 34 33 62 35 62 3 0 -16 -77 -40 -171 -50 -195 -136
-461 -194 -605 -22 -53 -40 -111 -40 -128 0 -40 -25 -146 -50 -212 -10 -28
-26 -87 -34 -131 -8 -44 -26 -109 -39 -144 -105 -279 -289 -939 -392 -1403
-25 -115 -52 -221 -60 -236 -20 -38 -52 -174 -60 -253 -4 -38 -28 -142 -55
-231 -73 -245 -129 -513 -145 -696 -6 -64 -13 -84 -46 -136 -43 -67 -46 -79
-24 -91 13 -8 12 -23 -10 -123 -28 -126 -43 -157 -86 -173 -34 -13 -37 -23 -9
-30 20 -5 29 -37 10 -37 -15 0 -37 -50 -54 -121 -8 -35 -18 -72 -21 -82 -6
-13 -3 -16 9 -11 9 3 16 1 16 -5 0 -6 -5 -11 -10 -11 -6 0 -16 -12 -22 -27
l-11 -28 -8 35 c-9 37 5 140 23 174 8 15 7 22 -6 31 -20 15 -21 55 -1 81 8 10
15 28 15 38 0 18 -1 18 -20 1 -20 -18 -20 -17 -20 24 0 35 4 43 25 51 39 15
59 65 60 147 0 63 4 77 26 105 14 18 31 43 38 56 15 28 5 48 -15 31 -19 -16
-19 -15 26 141 67 232 82 307 89 447 6 121 5 130 -11 122 -27 -14 -38 -11 -38
13 0 13 24 44 65 83 36 35 65 68 65 76 0 7 -9 4 -24 -10 -14 -13 -30 -20 -36
-16 -18 11 -3 52 51 140 33 54 51 96 55 129 8 53 -9 60 -19 7 -3 -15 -13 -31
-23 -35 -13 -5 -15 -2 -11 16 3 13 9 47 13 76 6 46 9 52 30 52 20 0 24 5 24
29 0 16 16 59 36 96 19 37 34 77 32 89 -3 17 -7 14 -26 -21 -12 -24 -29 -43
-37 -43 -19 0 -19 3 4 46 11 20 17 43 14 50 -12 33 -42 -42 -83 -206 -23 -90
-54 -155 -78 -165 -10 -3 -12 0 -8 10 33 87 57 186 48 201 -8 14 -15 3 -35
-62 -14 -43 -28 -98 -32 -121 -3 -22 -13 -49 -21 -60 -14 -17 -15 -16 -9 9 7
37 -6 35 -28 -3 -15 -28 -16 -34 -4 -48 10 -10 12 -23 7 -36 -7 -17 -9 -17 -9
-2 -2 30 -19 18 -25 -18 -4 -21 0 -61 10 -101 15 -60 15 -68 1 -75 -15 -9 -57
-70 -57 -83 0 -3 7 -6 15 -6 12 0 8 -12 -14 -53 -34 -60 -83 -278 -107 -472
-8 -66 -33 -195 -55 -288 -25 -106 -44 -212 -50 -290 -12 -146 -41 -273 -69
-299 -21 -20 -26 -38 -11 -38 5 0 13 9 16 20 7 21 30 27 40 10 7 -12 -34 -70
-51 -70 -18 0 -24 -50 -24 -189 0 -70 -5 -153 -10 -184 -9 -46 -8 -66 6 -109
11 -37 19 -115 24 -258 8 -208 14 -247 48 -304 12 -21 16 -39 12 -52 -13 -33
14 -77 79 -135 74 -65 119 -125 104 -140 -7 -7 -25 3 -57 30 -50 43 -66 50
-66 27 0 -23 58 -52 177 -91 61 -20 123 -45 137 -56 20 -16 26 -17 26 -6 0 8
7 20 15 27 19 16 20 0 3 -46 -9 -26 -9 -36 1 -48 21 -25 31 -19 31 21 0 29 3
34 12 25 17 -17 49 -14 77 7 l25 19 -27 32 c-19 22 -27 43 -27 71 0 42 6 48
25 22 17 -23 33 -9 45 39 8 26 18 42 32 46 18 4 19 10 13 75 -5 49 -4 68 3 63
18 -11 32 -76 32 -147 0 -60 10 -89 32 -89 4 0 8 6 8 14 0 8 5 18 10 21 7 4
10 -6 8 -29 -1 -20 3 -41 9 -47 24 -24 83 83 83 152 0 17 8 34 21 42 11 8 28
41 38 73 15 50 21 59 39 57 21 -3 22 1 22 75 1 79 22 234 60 427 14 74 22 155
23 248 2 116 4 138 18 142 13 4 16 19 16 68 0 117 11 202 37 289 27 95 118
533 136 663 16 114 57 309 79 383 16 51 17 62 5 62 -8 0 -14 -4 -14 -10 0 -5
-5 -10 -10 -10 -6 0 -7 6 -1 17 53 104 71 149 71 177 0 57 26 176 63 287 39
116 70 263 66 312 -2 19 8 54 24 87 28 58 57 159 102 350 14 63 37 139 51 169
23 51 23 53 4 48 -27 -7 -25 7 4 36 16 16 26 41 31 78 13 95 63 270 118 413
45 116 52 144 44 166 -8 21 -2 47 36 145 56 148 129 379 201 635 30 107 71
240 91 295 20 55 39 116 42 135 3 19 16 47 29 62 12 15 28 54 34 85 15 77 29
121 51 163 10 19 47 123 82 230 121 366 273 726 542 1280 259 536 385 804 385
824 0 10 -9 29 -20 43 -11 14 -20 39 -20 54 0 19 -5 29 -15 29 -19 0 -20 16
-1 23 8 3 17 34 23 84 12 98 8 116 -23 109 -31 -8 -48 24 -40 73 6 43 1 53
-39 72 -22 11 -29 21 -28 38 3 20 -1 22 -34 19 -34 -3 -38 -7 -48 -42 -7 -22
-17 -42 -23 -44 -17 -5 -4 88 15 110 9 10 10 18 4 22 -5 3 -19 37 -31 74 -12
37 -31 76 -41 86 -17 19 -19 19 -37 3 -10 -9 -31 -17 -46 -17 -15 0 -36 -4
-46 -10 -14 -7 -19 -5 -23 10 -3 10 -22 27 -43 36 -22 10 -42 20 -47 22 -4 2
-17 -18 -29 -45z m284 -135 c-12 -12 -32 -2 -32 17 0 18 34 24 38 7 2 -8 -1
-19 -6 -24z m211 -424 c10 -10 -12 -44 -29 -44 -20 0 -30 30 -13 41 17 10 33
11 42 3z m-1428 -2350 c-23 -17 -34 -2 -14 22 9 11 15 12 23 4 8 -8 6 -15 -9
-26z m-165 -161 c0 -21 -3 -24 -9 -14 -5 8 -7 20 -4 28 8 21 13 15 13 -14z
m-25 -73 c4 -6 11 -8 16 -5 13 9 11 -5 -11 -74 -25 -80 -28 -85 -46 -70 -11 9
-14 8 -14 -5 0 -9 -5 -16 -10 -16 -13 0 -3 43 21 92 11 21 19 49 19 63 0 25
14 34 25 15z m75 -289 c0 -6 -4 -13 -10 -16 -5 -3 -10 1 -10 9 0 9 5 16 10 16
6 0 10 -4 10 -9z m-165 -136 c-14 -26 -25 -58 -25 -70 0 -14 -8 -25 -20 -28
-23 -6 -27 -27 -5 -27 20 0 20 -63 1 -79 -20 -17 -30 3 -16 30 19 34 2 35 -17
0 -29 -51 -43 -38 -23 22 10 28 25 78 34 109 12 41 27 65 54 89 47 41 54 23
17 -46z m225 -176 c0 -31 -24 -99 -36 -99 -6 0 4 102 13 127 8 21 23 4 23 -28z
m-58 -221 c-9 -9 -12 -7 -12 12 0 19 3 21 12 12 9 -9 9 -15 0 -24z m-232 -62
c0 -14 13 -38 30 -54 35 -35 41 -58 11 -42 -26 13 -31 13 -31 -5 0 -8 -8 -30
-17 -50 -18 -38 -12 -55 12 -35 19 16 19 5 0 -78 -19 -80 -54 -150 -65 -132
-6 9 -14 -5 -25 -43 -10 -34 -24 -61 -36 -67 -11 -7 -19 -21 -19 -37 0 -55
-34 -162 -90 -283 -71 -154 -119 -300 -99 -300 13 0 29 35 29 63 0 28 39 83
40 57 0 -9 -9 -42 -20 -74 -12 -32 -19 -65 -16 -74 2 -10 7 -27 11 -39 6 -21
3 -23 -34 -23 -30 0 -41 -4 -41 -15 0 -8 5 -15 11 -15 21 0 4 -149 -30 -265
-17 -60 -35 -144 -39 -185 -7 -69 -9 -75 -29 -73 -18 2 -23 -4 -28 -35 -25
-146 -100 -344 -156 -412 l-21 -25 6 55 c3 30 8 75 11 100 4 41 3 40 -15 -20
-43 -142 -173 -526 -186 -550 -12 -24 -13 -23 -8 15 20 150 83 457 124 607 11
40 29 125 40 188 17 99 93 340 160 505 7 17 13 66 14 110 1 70 5 88 35 143 31
56 34 72 35 145 2 94 10 115 92 223 30 39 63 92 74 117 12 26 27 47 35 47 22
0 53 47 70 107 9 30 26 65 39 77 18 16 22 29 19 56 -4 27 5 53 36 112 27 51
36 75 26 71 -18 -6 -55 23 -55 44 0 10 5 11 19 4 25 -14 31 -5 31 44 0 42 13
65 37 65 7 0 13 -11 13 -24z m180 -156 c0 -16 -5 -41 -11 -57 -6 -15 -15 -50
-19 -78 -17 -98 -101 -307 -136 -336 -14 -12 -14 -8 3 26 26 52 56 144 88 275
41 165 56 211 66 205 5 -4 9 -19 9 -35z m-305 -47 c-10 -96 -39 -201 -73 -270
l-30 -58 -13 29 c-12 26 -10 38 21 125 18 53 37 120 41 149 7 51 30 92 52 92
6 0 7 -26 2 -67z m470 -233 c-3 -5 -10 -10 -16 -10 -5 0 -9 5 -9 10 0 6 7 10
16 10 8 0 12 -4 9 -10z m-1492 -285 c-3 -9 -8 -14 -10 -11 -3 3 -2 9 2 15 9
16 15 13 8 -4z m1137 -14 c0 -31 -33 -81 -46 -69 -9 9 24 98 37 98 5 0 9 -13
9 -29z m-706 -73 c-3 -18 -10 -42 -15 -53 -7 -17 -8 -17 -8 8 -1 15 -5 27 -11
27 -17 0 -11 28 8 39 28 17 34 13 26 -21z m486 -145 c0 -10 -5 -25 -10 -33 -7
-11 -10 -7 -10 18 0 17 5 32 10 32 6 0 10 -8 10 -17z m-50 -875 c-1 -19 -29
-53 -37 -45 -8 8 17 57 29 57 4 0 8 -6 8 -12z m-684 -84 c-3 -9 -6 -20 -6 -25
0 -5 -4 -9 -10 -9 -11 0 -14 33 -3 43 12 13 25 7 19 -9z m604 -192 c0 -4 -7
-18 -16 -30 -8 -12 -12 -27 -8 -33 4 -8 0 -8 -15 0 -25 14 -25 15 -5 46 15 23
44 34 44 17z m-710 -64 c0 -6 -11 -23 -25 -40 -14 -16 -25 -36 -25 -44 0 -8
-4 -14 -10 -14 -15 0 -12 16 11 70 14 33 25 47 35 43 8 -3 14 -10 14 -15z
m695 -48 c3 -6 -3 -22 -14 -36 -14 -18 -21 -41 -21 -69 0 -106 -65 -394 -101
-445 -8 -12 -9 -11 -5 5 2 11 14 81 26 155 24 152 41 233 71 332 20 65 31 79
44 58z m-297 -450 c-5 -16 -18 -36 -29 -46 -18 -17 -19 -16 -19 16 0 21 8 43
22 57 26 28 41 13 26 -27z m-188 -139 c-1 -45 -50 -135 -65 -120 -2 2 6 44 18
93 18 79 22 87 34 71 7 -11 13 -30 13 -44z m295 -208 c-3 -13 -11 -23 -18 -20
-14 5 -11 52 6 81 11 20 12 20 15 -8 2 -15 1 -39 -3 -53z m-360 17 c8 -24 0
-83 -22 -157 -8 -29 -13 -67 -11 -85 l3 -33 26 29 c28 30 49 28 49 -5 0 -31
-19 -59 -40 -59 -19 0 -24 -17 -46 -141 -3 -20 -15 -52 -26 -70 -18 -30 -21
-31 -30 -14 -19 33 -1 201 37 350 19 76 35 154 35 172 0 37 15 44 25 13z m163
-120 c-4 -96 -17 -150 -36 -150 -10 0 4 165 20 240 16 74 21 41 16 -90z
m-4628 -14 c0 -2 -7 -9 -15 -16 -12 -10 -15 -10 -15 4 0 9 7 16 15 16 8 0 15
-2 15 -4z m4110 -55 c0 -13 -29 -35 -37 -28 -7 8 15 37 28 37 5 0 9 -4 9 -9z
m669 -93 c-1 -63 -10 -100 -26 -105 -9 -3 -9 4 -2 29 5 18 9 54 9 80 0 27 5
48 10 48 6 0 10 -24 9 -52z m-223 -183 c-3 -9 -11 -13 -16 -10 -8 5 -7 11 1
21 14 18 24 11 15 -11z m-556 11 c0 -2 -3 -11 -6 -20 -9 -23 -34 -20 -34 4 0
13 7 20 20 20 11 0 20 -2 20 -4z m708 -70 c4 -20 -24 -56 -44 -56 -9 0 -9 9 3
40 16 41 35 48 41 16z m-5015 -31 c-3 -8 -9 -15 -14 -15 -10 0 -12 24 -3 33
11 11 24 -3 17 -18z m4837 -31 c0 -26 -43 -74 -66 -74 -20 0 -17 11 16 64 31
49 50 53 50 10z m-140 -37 c0 -7 -7 -22 -15 -33 -8 -12 -11 -25 -7 -29 4 -5 1
-5 -5 -1 -24 13 -12 76 13 76 8 0 14 -6 14 -13z m-169 -70 c-8 -8 -14 -8 -23
1 -9 9 -8 15 8 26 17 13 19 13 22 -1 2 -8 -1 -20 -7 -26z m-258 -67 c-3 -11
-9 -20 -14 -20 -10 0 -11 12 -3 34 9 22 23 10 17 -14z m67 -20 c0 -22 -4 -40
-10 -40 -5 0 -10 18 -10 40 0 22 5 40 10 40 6 0 10 -18 10 -40z m666 14 c-3
-9 -6 -18 -6 -20 0 -2 -4 -4 -9 -4 -5 0 -7 9 -4 20 3 11 10 20 15 20 6 0 7 -7
4 -16z m-387 -289 c-20 -105 -24 -116 -32 -89 -6 20 -3 59 8 120 9 49 21 121
28 159 l12 70 3 -70 c2 -43 -6 -117 -19 -190z m-342 142 c-6 -20 -27 -19 -27
2 0 14 5 19 15 14 9 -3 14 -10 12 -16z m693 -6 c0 -11 -4 -23 -10 -26 -6 -4
-10 5 -10 19 0 14 5 26 10 26 6 0 10 -9 10 -19z m-640 -40 c0 -24 -18 -37 -32
-23 -8 8 -7 16 2 27 17 21 30 19 30 -4z m-60 -15 c0 -28 -17 -43 -32 -28 -7 7
-6 17 1 31 16 28 31 27 31 -3z m-15 -65 c3 -5 1 -12 -5 -16 -5 -3 -10 1 -10 9
0 18 6 21 15 7z m150 -48 c1 -11 6 -27 13 -35 9 -12 8 -22 -8 -52 l-19 -38
-16 31 c-14 29 -13 87 2 114 9 15 28 1 28 -20z m548 -3 c-3 -11 -12 -20 -19
-20 -17 0 -18 12 -2 28 18 18 27 15 21 -8z m-665 -21 c3 -27 -34 -83 -49 -74
-14 9 -11 42 7 76 18 35 38 34 42 -2z m-74 -68 c7 -44 22 -59 39 -42 14 14 27
14 27 0 0 -16 -56 -69 -74 -69 -13 0 -16 14 -16 81 0 83 13 99 24 30z m401
-18 c-4 -10 -10 -26 -12 -36 -7 -21 -27 -17 -31 7 -4 21 15 46 35 46 11 0 13
-5 8 -17z m-4674 -106 c-8 -8 -11 -7 -11 4 0 9 3 19 7 23 4 4 9 2 11 -4 3 -7
-1 -17 -7 -23z m4479 -3 c0 -8 -4 -14 -10 -14 -5 0 -10 9 -10 21 0 11 5 17 10
14 6 -3 10 -13 10 -21z m192 -68 c-4 -53 -6 -57 -18 -41 -17 23 -18 73 -3 112
10 26 12 26 19 8 4 -11 5 -47 2 -79z m-412 5 c0 -12 -20 -25 -27 -18 -7 7 6
27 18 27 5 0 9 -4 9 -9z m920 -527 c0 -8 -7 -14 -15 -14 -15 0 -21 21 -9 33
10 9 24 -2 24 -19z m-22 -106 c-5 -32 -28 -35 -28 -4 0 17 5 26 16 26 10 0 14
-7 12 -22z m-68 -183 c0 -16 -38 -40 -48 -30 -4 3 4 15 18 25 30 24 30 24 30
5z m-70 -85 c0 -5 -4 -10 -10 -10 -5 0 -10 5 -10 10 0 6 5 10 10 10 6 0 10 -4
10 -10z m-290 -95 c0 -30 -15 -33 -30 -6 -14 27 -13 31 10 31 15 0 20 -7 20
-25z"/>
<path d="M7451 5378 c-6 -17 -11 -39 -11 -50 0 -16 3 -17 20 -8 14 7 20 21 20
45 0 45 -15 53 -29 13z"/>
<path d="M7251 4972 c-14 -26 -7 -42 10 -25 6 6 9 19 7 29 -3 17 -5 17 -17 -4z"/>
<path d="M7120 4368 c-16 -38 -63 -278 -56 -286 2 -1 14 21 26 50 19 45 63
278 53 278 -2 0 -12 -19 -23 -42z"/>
<path d="M6992 4093 c-14 -64 1 -91 17 -30 13 55 14 77 2 77 -5 0 -14 -21 -19
-47z"/>
<path d="M7052 4024 c1 -9 9 -19 16 -22 9 -3 13 2 10 14 -1 9 -9 19 -16 22 -9
3 -13 -2 -10 -14z"/>
<path d="M7352 6267 c-18 -38 -30 -72 -27 -76 18 -17 85 66 85 104 0 13 -6 27
-12 33 -10 7 -21 -8 -46 -61z"/>
<path d="M7140 5805 c-7 -8 -9 -22 -6 -31 6 -16 8 -15 21 2 26 35 13 62 -15
29z"/>
<path d="M7188 5729 c-24 -13 -23 -29 1 -29 10 0 21 9 24 20 6 22 0 24 -25 9z"/>
<path d="M7097 5622 c-26 -28 -22 -52 4 -25 12 11 20 26 17 33 -2 7 -9 5 -21
-8z"/>
<path d="M1910 4944 c0 -8 5 -12 10 -9 6 3 10 10 10 16 0 5 -4 9 -10 9 -5 0
-10 -7 -10 -16z"/>
<path d="M6556 4305 c4 -8 10 -12 15 -9 11 6 2 24 -11 24 -5 0 -7 -7 -4 -15z"/>
<path d="M6716 4275 c-4 -11 -13 -32 -18 -48 -18 -48 -31 -44 -26 7 7 59 -3
59 -25 -1 -20 -57 -22 -97 -4 -111 19 -16 90 106 85 145 -4 25 -5 26 -12 8z"/>
<path d="M6774 4256 c-4 -10 -2 -22 4 -28 8 -8 13 -7 18 6 4 10 2 22 -4 28 -8
8 -13 7 -18 -6z"/>
<path d="M6537 4202 c-34 -72 -35 -98 -1 -57 35 42 56 84 50 101 -9 24 -20 15
-49 -44z"/>
<path d="M6741 4093 c-7 -21 -15 -45 -18 -53 -5 -13 -4 -13 10 -1 16 13 34 77
25 87 -3 2 -10 -13 -17 -33z"/>
<path d="M6472 3997 c-18 -56 -32 -112 -32 -124 0 -37 18 -35 31 4 7 21 25 65
41 98 33 70 38 125 11 125 -14 0 -26 -25 -51 -103z"/>
<path d="M6597 4034 c-4 -4 -7 -14 -7 -23 0 -11 3 -12 11 -4 6 6 10 16 7 23
-2 6 -7 8 -11 4z"/>
<path d="M6633 3673 c-15 -6 -17 -43 -3 -43 12 0 24 25 18 38 -1 5 -9 7 -15 5z"/>
<path d="M6410 3213 c0 -5 7 -16 14 -26 12 -15 15 -15 26 -3 6 9 9 20 5 26 -7
11 -45 14 -45 3z"/>
<path d="M2391 2991 c-7 -5 -12 -14 -10 -20 3 -6 9 -7 18 -2 7 5 12 14 10 20
-3 6 -9 7 -18 2z"/>
<path d="M6455 2940 c-4 -6 -3 -16 3 -22 6 -6 12 -6 17 2 4 6 3 16 -3 22 -6 6
-12 6 -17 -2z"/>
<path d="M2193 2475 c-3 -9 -3 -18 0 -21 9 -9 27 6 27 22 0 19 -19 18 -27 -1z"/>
<path d="M2016 2251 c-47 -71 -68 -133 -48 -145 7 -4 15 10 22 34 8 28 16 40
29 40 27 0 57 30 70 70 10 29 9 37 -7 53 -19 18 -20 17 -66 -52z"/>
<path d="M2037 2133 c-12 -12 -7 -22 8 -17 8 4 15 10 15 15 0 11 -14 12 -23 2z"/>
<path d="M5971 1856 c-13 -15 -7 -36 9 -36 12 0 22 32 12 42 -5 5 -14 2 -21
-6z"/>
<path d="M1623 1480 c-57 -64 -55 -81 3 -25 25 25 44 51 42 59 -2 8 -19 -4
-45 -34z"/>
</g>
</svg>
