<svg width="1308" height="622" viewBox="0 0 1308 622" fill="none" xmlns="http://www.w3.org/2000/svg">
<path d="M46.875 282.422H1.5625C0.520833 282.422 0 281.771 0 280.469L0.78125 5.66406C0.78125 4.6224 1.30208 4.10156 2.34375 4.10156H51.1719C52.2135 4.10156 53.125 4.6224 53.9062 5.66406L90.4297 58.3984L126.758 5.66406C127.539 4.6224 128.516 4.10156 129.688 4.10156H178.711C179.883 4.10156 180.469 4.6224 180.469 5.66406L181.25 280.469C181.25 281.771 180.729 282.422 179.688 282.422H134.375C133.333 282.422 132.812 281.771 132.812 280.469L132.422 76.3672L90.4297 137.305L48.8281 76.3672L48.4375 280.469C48.4375 281.771 47.9167 282.422 46.875 282.422Z" fill="white"/>
<path d="M417.703 282.422H288.406C287.365 282.422 286.844 281.771 286.844 280.469L287.234 5.66406C287.234 4.6224 287.755 4.10156 288.797 4.10156H417.312C418.354 4.10156 418.875 4.7526 418.875 6.05469V50.7812C418.875 51.8229 418.354 52.3438 417.312 52.3438H335.281V114.844H417.312C418.354 114.844 418.875 115.365 418.875 116.406L419.266 161.719C419.266 162.76 418.745 163.281 417.703 163.281H335.281V233.203H417.703C418.745 233.203 419.266 233.854 419.266 235.156V280.859C419.266 281.901 418.745 282.422 417.703 282.422Z" fill="white"/>
<path d="M513.336 280.469L562.945 5.66406C563.206 4.6224 563.857 4.10156 564.898 4.10156H622.906C623.948 4.10156 624.599 4.6224 624.859 5.66406L672.516 280.469C672.646 281.771 672.125 282.422 670.953 282.422H626.617C625.315 282.422 624.599 281.771 624.469 280.469L620.172 251.172H565.68L561.383 280.469C561.253 281.771 560.602 282.422 559.43 282.422H514.898C513.857 282.422 513.336 281.771 513.336 280.469ZM591.656 96.0938L573.688 208.398H612.164L595.758 96.0938L593.414 81.25L591.656 96.0938Z" fill="white"/>
<path d="M813.07 282.422H773.031C770.948 282.422 769.906 281.51 769.906 279.688L769.516 7.22656C769.516 5.14323 770.557 4.10156 772.641 4.10156H808.773L876.352 161.719L874.398 7.22656C874.398 5.14323 875.57 4.10156 877.914 4.10156H917.562C919.125 4.10156 919.906 5.14323 919.906 7.22656L920.297 280.078C920.297 281.641 919.646 282.422 918.344 282.422H883.188L813.852 135.156L816.781 279.297C816.781 281.38 815.544 282.422 813.07 282.422Z" fill="white"/>
<path d="M1095.03 286.328C1080.84 286.328 1067.75 282.682 1055.77 275.391C1043.92 268.099 1034.42 258.398 1027.26 246.289C1020.23 234.049 1016.71 220.638 1016.71 206.055V187.695C1016.71 186.263 1017.36 185.547 1018.66 185.547H1063.59C1064.63 185.547 1065.15 186.263 1065.15 187.695V206.055C1065.15 214.779 1068.08 222.331 1073.94 228.711C1079.8 234.961 1086.83 238.086 1095.03 238.086C1103.36 238.086 1110.46 234.896 1116.32 228.516C1122.18 222.005 1125.11 214.518 1125.11 206.055C1125.11 196.289 1118.73 187.76 1105.97 180.469C1103.89 179.167 1101.15 177.604 1097.77 175.781C1094.51 173.828 1090.6 171.615 1086.05 169.141C1081.49 166.667 1077.06 164.258 1072.77 161.914C1068.47 159.44 1064.3 157.096 1060.27 154.883C1045.68 146.289 1034.81 135.547 1027.65 122.656C1020.62 109.635 1017.1 95.0521 1017.1 78.9062C1017.1 64.0625 1020.75 50.651 1028.04 38.6719C1035.33 26.8229 1044.84 17.4479 1056.55 10.5469C1068.4 3.51562 1081.23 0 1095.03 0C1109.22 0 1122.24 3.51562 1134.09 10.5469C1145.94 17.7083 1155.38 27.2135 1162.41 39.0625C1169.58 50.9115 1173.16 64.1927 1173.16 78.9062V111.719C1173.16 112.76 1172.64 113.281 1171.59 113.281H1126.67C1125.63 113.281 1125.11 112.76 1125.11 111.719L1124.72 78.9062C1124.72 69.5312 1121.79 61.9141 1115.93 56.0547C1110.07 50.1953 1103.1 47.2656 1095.03 47.2656C1086.83 47.2656 1079.8 50.3906 1073.94 56.6406C1068.08 62.8906 1065.15 70.3125 1065.15 78.9062C1065.15 87.6302 1066.97 94.9219 1070.62 100.781C1074.39 106.641 1081.23 112.24 1091.12 117.578C1092.17 118.099 1094.58 119.401 1098.35 121.484C1102.13 123.568 1106.29 125.911 1110.85 128.516C1115.54 130.99 1119.77 133.268 1123.55 135.352C1127.32 137.305 1129.6 138.477 1130.38 138.867C1143.66 146.289 1154.15 155.404 1161.83 166.211C1169.64 177.018 1173.55 190.299 1173.55 206.055C1173.55 221.289 1170.03 234.961 1163 247.07C1155.84 259.18 1146.33 268.75 1134.48 275.781C1122.64 282.812 1109.48 286.328 1095.03 286.328Z" fill="white"/>
<path d="M46.875 617.141H1.5625C0.520833 617.141 0 616.49 0 615.188L0.78125 340.383C0.78125 339.341 1.30208 338.82 2.34375 338.82H51.1719C52.2135 338.82 53.125 339.341 53.9062 340.383L90.4297 393.117L126.758 340.383C127.539 339.341 128.516 338.82 129.688 338.82H178.711C179.883 338.82 180.469 339.341 180.469 340.383L181.25 615.188C181.25 616.49 180.729 617.141 179.688 617.141H134.375C133.333 617.141 132.812 616.49 132.812 615.188L132.422 411.086L90.4297 472.023L48.8281 411.086L48.4375 615.188C48.4375 616.49 47.9167 617.141 46.875 617.141Z" fill="white"/>
<path d="M360.867 621.047C346.674 621.047 333.589 617.401 321.609 610.109C309.76 602.818 300.19 593.117 292.898 581.008C285.737 568.768 282.156 555.357 282.156 540.773L282.547 414.016C282.547 399.172 286.128 385.826 293.289 373.977C300.32 361.997 309.826 352.427 321.805 345.266C333.784 337.974 346.805 334.328 360.867 334.328C375.451 334.328 388.536 337.909 400.125 345.07C411.844 352.232 421.219 361.867 428.25 373.977C435.411 385.956 438.992 399.302 438.992 414.016L439.383 540.773C439.383 555.357 435.867 568.703 428.836 580.812C421.674 593.052 412.169 602.818 400.32 610.109C388.471 617.401 375.32 621.047 360.867 621.047ZM360.867 572.805C368.94 572.805 375.971 569.549 381.961 563.039C387.951 556.398 390.945 548.977 390.945 540.773L390.555 414.016C390.555 405.161 387.755 397.674 382.156 391.555C376.557 385.435 369.461 382.375 360.867 382.375C352.664 382.375 345.633 385.37 339.773 391.359C333.914 397.349 330.984 404.901 330.984 414.016V540.773C330.984 549.497 333.914 557.049 339.773 563.43C345.633 569.68 352.664 572.805 360.867 572.805Z" fill="white"/>
<path d="M627.008 617.141H581.891C580.719 617.141 580.133 616.49 580.133 615.188V387.062H528.18C526.878 387.062 526.227 386.411 526.227 385.109L526.617 340.383C526.617 339.341 527.138 338.82 528.18 338.82H680.133C681.565 338.82 682.281 339.341 682.281 340.383V385.109C682.281 386.411 681.76 387.062 680.719 387.062H628.18L628.57 615.188C628.57 616.49 628.049 617.141 627.008 617.141Z" fill="white"/>
<path d="M821.078 617.141H775.766C774.464 617.141 773.812 616.49 773.812 615.188L774.203 340.383C774.203 339.341 774.724 338.82 775.766 338.82H820.688C821.729 338.82 822.25 339.341 822.25 340.383L822.641 615.188C822.641 616.49 822.12 617.141 821.078 617.141Z" fill="white"/>
<path d="M1023.16 617.141H974.719C973.547 617.141 972.896 616.49 972.766 615.188L917.492 340.383C917.232 339.341 917.753 338.82 919.055 338.82H964.367C965.409 338.82 966.06 339.341 966.32 340.383L999.133 523.586L1031.16 340.383C1031.42 339.341 1032.08 338.82 1033.12 338.82H1077.84C1079.28 338.82 1079.8 339.341 1079.41 340.383L1025.11 615.188C1024.98 616.49 1024.33 617.141 1023.16 617.141Z" fill="white"/>
<path d="M1305.7 617.141H1176.41C1175.36 617.141 1174.84 616.49 1174.84 615.188L1175.23 340.383C1175.23 339.341 1175.76 338.82 1176.8 338.82H1305.31C1306.35 338.82 1306.88 339.471 1306.88 340.773V385.5C1306.88 386.542 1306.35 387.062 1305.31 387.062H1223.28V449.562H1305.31C1306.35 449.562 1306.88 450.083 1306.88 451.125L1307.27 496.438C1307.27 497.479 1306.74 498 1305.7 498H1223.28V567.922H1305.7C1306.74 567.922 1307.27 568.573 1307.27 569.875V615.578C1307.27 616.62 1306.74 617.141 1305.7 617.141Z" fill="white"/>
</svg>
