<svg version="1.1" id="Layer_1" xmlns="http://www.w3.org/2000/svg" xmlns:xlink="http://www.w3.org/1999/xlink" x="0px" y="0px" viewBox="0 0 122.88 122.88" style="enable-background:new 0 0 122.88 122.88" xml:space="preserve">
  <style type="text/css">
    <![CDATA[
    .st1{fill:#FFFFFF;}
    ]]>
  </style>
  <g>
    <g>
      <path class="st1" d="M47.76,86.16v-38.4c0-1.44,0.8-2.32,2.4-2.64l33.12-6.72c1.76-0.32,2.72,0.48,2.88,2.4v29.28 c0,2.4-3.6,4-10.8,4.8c-13.68,2.16-11.52,25.2,7.2,18.96c7.2-2.64,8.4-9.6,8.4-16.56V21.12c0,0,0-4.8-4.08-3.6l-40.8,8.4 c0,0-3.12,0.48-3.12,4.32v48.72c0,2.4-3.6,4-10.8,4.8c-13.68,2.16-11.52,25.2,7.2,18.96C46.56,100.08,47.76,93.12,47.76,86.16 L47.76,86.16z"/>
    </g>
  </g>
</svg>

